HIERARCHY
ROOT hip
{
OFFSET -0.03 97.06 0
CHANNELS 6 Xposition Yposition Zposition Zrotation Xrotation Yrotation
JOINT abdomen
{
OFFSET 0 7.23 0
CHANNELS 6 Xposition Yposition Zposition Zrotation Xrotation Yrotation
JOINT chest
{
OFFSET 0 16.54 0
CHANNELS 6 Xposition Yposition Zposition Zrotation Xrotation Yrotation
JOINT neck
{
OFFSET 0 34.21 0
CHANNELS 6 Xposition Yposition Zposition Zrotation Xrotation Yrotation
JOINT head
{
OFFSET 0 6.29 0
CHANNELS 6 Xposition Yposition Zposition Zrotation Xrotation Yrotation
End Site
{
OFFSET 0 21.21 0
}
}
}
JOINT lCollar
{
OFFSET 4.06 26.61 -1.12
CHANNELS 6 Xposition Yposition Zposition Zrotation Xrotation Yrotation
JOINT lShldr
{
OFFSET 14.17 0 0
CHANNELS 6 Xposition Yposition Zposition Zrotation Xrotation Yrotation
JOINT lForeArm
{
OFFSET 26.12 0 0
CHANNELS 6 Xposition Yposition Zposition Zrotation Xrotation Yrotation
JOINT lHand
{
OFFSET 27.71 0 0
CHANNELS 6 Xposition Yposition Zposition Zrotation Xrotation Yrotation
JOINT lThumb1
{
OFFSET 2.29 -0.46 1.83
CHANNELS 6 Xposition Yposition Zposition Zrotation Xrotation Yrotation
JOINT lThumb2
{
OFFSET 5.29 0 0
CHANNELS 6 Xposition Yposition Zposition Zrotation Xrotation Yrotation
JOINT lThumb3
{
OFFSET 3.01 0 0
CHANNELS 6 Xposition Yposition Zposition Zrotation Xrotation Yrotation
End Site
{
OFFSET 2.62 0 0
}
}
}
}
JOINT lIndex1
{
OFFSET 9.37 0.29 2.59
CHANNELS 6 Xposition Yposition Zposition Zrotation Xrotation Yrotation
JOINT lIndex2
{
OFFSET 4.34 0 0
CHANNELS 6 Xposition Yposition Zposition Zrotation Xrotation Yrotation
JOINT lIndex3
{
OFFSET 2.16 0 0
CHANNELS 6 Xposition Yposition Zposition Zrotation Xrotation Yrotation
End Site
{
OFFSET 2.20 0 0
}
}
}
}
JOINT lMid1
{
OFFSET 9.47 0.83 0.29
CHANNELS 6 Xposition Yposition Zposition Zrotation Xrotation Yrotation
JOINT lMid2
{
OFFSET 4.77 0 0
CHANNELS 6 Xposition Yposition Zposition Zrotation Xrotation Yrotation
JOINT lMid3
{
OFFSET 2.87 0 0
CHANNELS 6 Xposition Yposition Zposition Zrotation Xrotation Yrotation
End Site
{
OFFSET 2.09 0 0
}
}
}
}
JOINT lRing1
{
OFFSET 8.65 1.01 -1.70
CHANNELS 6 Xposition Yposition Zposition Zrotation Xrotation Yrotation
JOINT lRing2
{
OFFSET 4.54 0 0
CHANNELS 6 Xposition Yposition Zposition Zrotation Xrotation Yrotation
JOINT lRing3
{
OFFSET 2.50 0 0
CHANNELS 6 Xposition Yposition Zposition Zrotation Xrotation Yrotation
End Site
{
OFFSET 2.20 0 0
}
}
}
}
JOINT lPinky1
{
OFFSET 7.69 0.66 -3.90
CHANNELS 6 Xposition Yposition Zposition Zrotation Xrotation Yrotation
JOINT lPinky2
{
OFFSET 3.21 0 0
CHANNELS 6 Xposition Yposition Zposition Zrotation Xrotation Yrotation
JOINT lPinky3
{
OFFSET 1.92 0 0
CHANNELS 6 Xposition Yposition Zposition Zrotation Xrotation Yrotation
End Site
{
OFFSET 1.78 0 0
}
}
}
}
}
}
}
}
JOINT rCollar
{
OFFSET -4.06 26.61 -1.12
CHANNELS 6 Xposition Yposition Zposition Zrotation Xrotation Yrotation
JOINT rShldr
{
OFFSET -14.17 0 0
CHANNELS 6 Xposition Yposition Zposition Zrotation Xrotation Yrotation
JOINT rForeArm
{
OFFSET -26.12 0 0
CHANNELS 6 Xposition Yposition Zposition Zrotation Xrotation Yrotation
JOINT rHand
{
OFFSET -27.71 0 0
CHANNELS 6 Xposition Yposition Zposition Zrotation Xrotation Yrotation
JOINT rThumb1
{
OFFSET -2.29 -0.46 1.83
CHANNELS 6 Xposition Yposition Zposition Zrotation Xrotation Yrotation
JOINT rThumb2
{
OFFSET -5.29 0 0
CHANNELS 6 Xposition Yposition Zposition Zrotation Xrotation Yrotation
JOINT rThumb3
{
OFFSET -3.01 0 0
CHANNELS 6 Xposition Yposition Zposition Zrotation Xrotation Yrotation
End Site
{
OFFSET -2.62 0 0
}
}
}
}
JOINT rIndex1
{
OFFSET -9.37 0.29 2.59
CHANNELS 6 Xposition Yposition Zposition Zrotation Xrotation Yrotation
JOINT rIndex2
{
OFFSET -4.34 0 0
CHANNELS 6 Xposition Yposition Zposition Zrotation Xrotation Yrotation
JOINT rIndex3
{
OFFSET -2.16 0 0
CHANNELS 6 Xposition Yposition Zposition Zrotation Xrotation Yrotation
End Site
{
OFFSET -2.20 0 0
}
}
}
}
JOINT rMid1
{
OFFSET -9.47 0.83 0.29
CHANNELS 6 Xposition Yposition Zposition Zrotation Xrotation Yrotation
JOINT rMid2
{
OFFSET -4.77 0 0
CHANNELS 6 Xposition Yposition Zposition Zrotation Xrotation Yrotation
JOINT rMid3
{
OFFSET -2.87 0 0
CHANNELS 6 Xposition Yposition Zposition Zrotation Xrotation Yrotation
End Site
{
OFFSET -2.09 0 0
}
}
}
}
JOINT rRing1
{
OFFSET -8.65 1.01 -1.70
CHANNELS 6 Xposition Yposition Zposition Zrotation Xrotation Yrotation
JOINT rRing2
{
OFFSET -4.54 0 0
CHANNELS 6 Xposition Yposition Zposition Zrotation Xrotation Yrotation
JOINT rRing3
{
OFFSET -2.50 0 0
CHANNELS 6 Xposition Yposition Zposition Zrotation Xrotation Yrotation
End Site
{
OFFSET -2.20 0 0
}
}
}
}
JOINT rPinky1
{
OFFSET -7.69 0.66 -3.90
CHANNELS 6 Xposition Yposition Zposition Zrotation Xrotation Yrotation
JOINT rPinky2
{
OFFSET -3.21 0 0
CHANNELS 6 Xposition Yposition Zposition Zrotation Xrotation Yrotation
JOINT rPinky3
{
OFFSET -1.92 0 0
CHANNELS 6 Xposition Yposition Zposition Zrotation Xrotation Yrotation
End Site
{
OFFSET -1.78 0 0
}
}
}
}
}
}
}
}
}
}
JOINT lThigh
{
OFFSET 8.73 -0 0
CHANNELS 6 Xposition Yposition Zposition Zrotation Xrotation Yrotation
JOINT lShin
{
OFFSET 0 -46.66 0
CHANNELS 6 Xposition Yposition Zposition Zrotation Xrotation Yrotation
JOINT lFoot
{
OFFSET 0 -40.14 0
CHANNELS 6 Xposition Yposition Zposition Zrotation Xrotation Yrotation
JOINT lToes
{
OFFSET 0 -8.88 14.22
CHANNELS 6 Xposition Yposition Zposition Zrotation Xrotation Yrotation
End Site
{
OFFSET 0 0 6.29
}
}
}
}
}
JOINT rThigh
{
OFFSET -8.73 0 -0
CHANNELS 6 Xposition Yposition Zposition Zrotation Xrotation Yrotation
JOINT rShin
{
OFFSET 0 -46.66 0
CHANNELS 6 Xposition Yposition Zposition Zrotation Xrotation Yrotation
JOINT rFoot
{
OFFSET 0 -40.14 0
CHANNELS 6 Xposition Yposition Zposition Zrotation Xrotation Yrotation
JOINT rToes
{
OFFSET 0 -8.88 14.22
CHANNELS 6 Xposition Yposition Zposition Zrotation Xrotation Yrotation
End Site
{
OFFSET 0 0 6.29
}
}
}
}
}
}
MOTION
Frames: 4
Frame Time: 0.03
5.98 93.76 -1.92 -3.09 1.59 -61.00 0 7.23 0 0.20 -2.06 -6.30 0 16.54 0 -0.69 -2.20 -12.56 0 34.21 0 6.53 43.44 -4.49 0 6.29 0 10.53 -18.98 -57.49 4.06 26.61 -1.12 -6.82 -4.38 14.10 14.17 0 0 -72.16 34.36 7.59 26.12 0 0 -0.29 0.05 -20.24 27.71 0 0 -4.44 -2.54 9.02 2.29 -0.46 1.83 65.49 66.15 -82.44 5.29 0 0 -27.93 0.71 7.87 3.01 0 0 34.24 -1.68 8.51 9.37 0.29 2.59 -15.22 -1.62 6.23 4.34 0 0 -16.84 -0.23 3.45 2.16 0 0 -8.54 -0.12 1.28 9.47 0.83 0.29 -18.31 -5.25 4.93 4.77 0 0 -17.29 -0.58 4.42 2.87 0 0 -1.97 0.09 1.92 8.65 1.01 -1.70 -24.91 0.89 1.32 4.54 0 0 -21.82 -0.56 2.93 2.50 0 0 1.17 0.05 0.76 7.69 0.66 -3.90 -27.83 -10.56 -3.40 3.21 0 0 -22.22 -1.48 7.55 1.92 0 0 -2.97 0.03 2.56 -4.06 26.61 -1.12 3.30 -2.18 -12.55 -14.17 0 0 61.03 -4.66 -16.00 -26.12 0 0 0.84 0.71 80.28 -27.71 0 0 -4.81 -9.94 18.07 -2.29 -0.46 1.83 -47.98 70.37 62.32 -5.29 0 0 30.26 1.69 -2.24 -3.01 0 0 -31.07 5.95 -17.27 -9.37 0.29 2.59 4.93 -1.45 -11.46 -4.34 0 0 16.66 -0.17 -3.06 -2.16 0 0 11.28 -0.19 -1.64 -9.47 0.83 0.29 32.66 -6.36 -12.48 -4.77 0 0 35.59 -2.46 -7.94 -2.87 0 0 18.08 -0.56 -5.52 -8.65 1.01 -1.70 36.71 -0.14 -8.37 -4.54 0 0 52.45 -2.61 -5.30 -2.50 0 0 27.17 -0.69 -3.84 -7.69 0.66 -3.90 54.07 -13.85 -7.13 -3.21 0 0 58.65 -9.07 -16.08 -1.92 0 0 31.67 -2.73 -11.23 8.73 -0 0 7.92 -8.26 35.53 0 -46.66 0 3.60 34.76 4.74 0 -40.14 0 -6.40 -23.45 27.54 0 -8.88 14.22 0 0 0 -8.73 0 -0 2.97 -17.45 -3.10 0 -46.66 0 -2.68 30.41 -3.26 0 -40.14 0 2.87 -11.55 19.85 0 -8.88 14.22 0 0 0 
5.85 93.82 -2.05 -3.13 1.56 -60.94 0 7.23 0 0.22 -2.10 -6.21 0 16.54 0 -0.64 -2.27 -12.39 0 34.21 0 6.51 43.41 -4.48 0 6.29 0 10.58 -18.97 -57.48 4.06 26.61 -1.12 -6.87 -4.39 14.10 14.17 0 0 -72.48 34.04 7.34 26.12 0 0 -0.28 0.04 -19.06 27.71 0 0 -4.78 -2.08 8.56 2.29 -0.46 1.83 66.41 66.69 -83.21 5.29 0 0 -27.85 0.71 7.87 3.01 0 0 34.21 -1.68 8.51 9.37 0.29 2.59 -15.17 -1.62 6.36 4.34 0 0 -16.77 -0.23 3.44 2.16 0 0 -8.46 -0.11 1.27 9.47 0.83 0.29 -18.26 -5.24 4.98 4.77 0 0 -17.28 -0.58 4.42 2.87 0 0 -1.89 0.09 1.90 8.65 1.01 -1.70 -24.90 0.89 1.36 4.54 0 0 -21.80 -0.56 2.93 2.50 0 0 1.21 0.05 0.76 7.69 0.66 -3.90 -27.79 -10.55 -3.41 3.21 0 0 -22.22 -1.48 7.55 1.92 0 0 -2.98 0.03 2.56 -4.06 26.61 -1.12 3.35 -2.19 -12.51 -14.17 0 0 60.79 -4.87 -16.09 -26.12 0 0 0.84 0.71 80.15 -27.71 0 0 -4.93 -10.09 18.12 -2.29 -0.46 1.83 -47.49 70.72 61.98 -5.29 0 0 30.23 1.70 -2.23 -3.01 0 0 -30.20 5.91 -17.42 -9.37 0.29 2.59 4.64 -1.43 -11.53 -4.34 0 0 16.60 -0.16 -3.05 -2.16 0 0 11.23 -0.19 -1.63 -9.47 0.83 0.29 31.97 -6.28 -12.48 -4.77 0 0 35.25 -2.41 -7.87 -2.87 0 0 17.74 -0.53 -5.45 -8.65 1.01 -1.70 36.15 -0.07 -8.38 -4.54 0 0 52.02 -2.57 -5.27 -2.50 0 0 26.74 -0.66 -3.79 -7.69 0.66 -3.90 53.40 -13.75 -7.24 -3.21 0 0 58.06 -8.91 -15.98 -1.92 0 0 31.09 -2.63 -11.07 8.73 -0 0 8.00 -8.10 35.51 0 -46.66 0 3.56 34.54 4.75 0 -40.14 0 -6.48 -23.27 27.46 0 -8.88 14.22 0 0 0 -8.73 0 -0 2.84 -17.26 -4.00 0 -46.66 0 -2.60 30.16 -2.96 0 -40.14 0 2.57 -11.49 20.26 0 -8.88 14.22 0 0 0 
5.75 93.87 -2.17 -3.12 1.54 -60.99 0 7.23 0 0.22 -2.14 -6.12 0 16.54 0 -0.63 -2.35 -12.21 0 34.21 0 6.50 43.36 -4.46 0 6.29 0 10.6 -19.02 -57.30 4.06 26.61 -1.12 -6.76 -4.36 14.15 14.17 0 0 -72.87 33.51 7.31 26.12 0 0 -0.27 0.04 -18.38 27.71 0 0 -4.78 -1.54 8.33 2.29 -0.46 1.83 67.47 67.20 -84.12 5.29 0 0 -27.80 0.72 7.87 3.01 0 0 34.17 -1.69 8.52 9.37 0.29 2.59 -15.18 -1.61 6.45 4.34 0 0 -16.74 -0.22 3.43 2.16 0 0 -8.42 -0.11 1.26 9.47 0.83 0.29 -18.27 -5.24 5.01 4.77 0 0 -17.28 -0.58 4.42 2.87 0 0 -1.85 0.09 1.89 8.65 1.01 -1.70 -24.95 0.88 1.38 4.54 0 0 -21.80 -0.56 2.93 2.50 0 0 1.22 0.05 0.76 7.69 0.66 -3.90 -27.82 -10.56 -3.41 3.21 0 0 -22.23 -1.48 7.55 1.92 0 0 -2.98 0.03 2.57 -4.06 26.61 -1.12 3.48 -2.22 -12.44 -14.17 0 0 60.62 -5.01 -16.12 -26.12 0 0 0.84 0.71 80.01 -27.71 0 0 -5.00 -10.25 18.21 -2.29 -0.46 1.83 -46.98 70.91 61.65 -5.29 0 0 30.22 1.70 -2.23 -3.01 0 0 -29.46 5.89 -17.53 -9.37 0.29 2.59 4.42 -1.42 -11.54 -4.34 0 0 16.52 -0.16 -3.03 -2.16 0 0 11.15 -0.18 -1.61 -9.47 0.83 0.29 31.30 -6.21 -12.43 -4.77 0 0 35.00 -2.38 -7.82 -2.87 0 0 17.48 -0.52 -5.39 -8.65 1.01 -1.70 35.59 -0.01 -8.39 -4.54 0 0 51.73 -2.54 -5.25 -2.50 0 0 26.45 -0.65 -3.76 -7.69 0.66 -3.90 52.64 -13.65 -7.41 -3.21 0 0 57.55 -8.76 -15.89 -1.92 0 0 30.58 -2.54 -10.93 8.73 -0 0 8.00 -7.98 35.41 0 -46.66 0 3.52 34.29 4.98 0 -40.14 0 -6.63 -23.07 27.36 0 -8.88 14.22 0 0 0 -8.73 0 -0 2.81 -17.11 -4.40 0 -46.66 0 -2.52 29.91 -2.58 0 -40.14 0 2.31 -11.41 20.23 0 -8.88 14.22 0 0 0 
5.67 93.92 -2.28 -3.09 1.53 -61.12 0 7.23 0 0.21 -2.17 -6.07 0 16.54 0 -0.65 -2.41 -12.11 0 34.21 0 6.47 43.31 -4.43 0 6.29 0 10.57 -19.18 -56.96 4.06 26.61 -1.12 -6.61 -4.33 14.21 14.17 0 0 -73.25 33.05 7.52 26.12 0 0 -0.26 0.04 -18.10 27.71 0 0 -4.69 -1.25 8.22 2.29 -0.46 1.83 68.65 67.60 -85.15 5.29 0 0 -27.74 0.72 7.87 3.01 0 0 34.14 -1.70 8.53 9.37 0.29 2.59 -15.20 -1.61 6.48 4.34 0 0 -16.75 -0.22 3.43 2.16 0 0 -8.41 -0.11 1.26 9.47 0.83 0.29 -18.33 -5.25 5.00 4.77 0 0 -17.29 -0.58 4.42 2.87 0 0 -1.83 0.09 1.89 8.65 1.01 -1.70 -24.99 0.88 1.38 4.54 0 0 -21.80 -0.56 2.93 2.50 0 0 1.23 0.05 0.75 7.69 0.66 -3.90 -27.90 -10.56 -3.42 3.21 0 0 -22.24 -1.48 7.56 1.92 0 0 -3.00 0.03 2.57 -4.06 26.61 -1.12 3.63 -2.25 -12.39 -14.17 0 0 60.56 -5.07 -16.05 -26.12 0 0 0.84 0.71 79.96 -27.71 0 0 -5.09 -10.38 18.35 -2.29 -0.46 1.83 -46.48 70.99 61.35 -5.29 0 0 30.26 1.69 -2.24 -3.01 0 0 -28.95 5.88 -17.6 -9.37 0.29 2.59 4.27 -1.42 -11.48 -4.34 0 0 16.47 -0.16 -3.02 -2.16 0 0 11.10 -0.18 -1.60 -9.47 0.83 0.29 30.65 -6.14 -12.31 -4.77 0 0 34.90 -2.36 -7.80 -2.87 0 0 17.37 -0.51 -5.36 -8.65 1.01 -1.70 35.01 0.05 -8.40 -4.54 0 0 51.64 -2.54 -5.24 -2.50 0 0 26.36 -0.64 -3.75 -7.69 0.66 -3.90 51.84 -13.53 -7.59 -3.21 0 0 57.06 -8.63 -15.80 -1.92 0 0 30.10 -2.46 -10.79 8.73 -0 0 8.00 -7.89 35.37 0 -46.66 0 3.48 34.07 5.24 0 -40.14 0 -6.77 -22.89 27.25 0 -8.88 14.22 0 0 -0 -8.73 0 -0 2.88 -17.02 -4.39 0 -46.66 0 -2.48 29.69 -2.48 0 -40.14 0 2.16 -11.31 20.21 0 -8.88 14.22 0 0 -0 
